<?xml version="1.0" encoding="UTF-8" standalone="no"?>
<!DOCTYPE svg PUBLIC "-//W3C//DTD SVG 1.1//EN" "http://www.w3.org/Graphics/SVG/1.1/DTD/svg11.dtd">
<svg width="100%" height="100%" viewBox="0 0 295 295" version="1.1" xmlns="http://www.w3.org/2000/svg" xmlns:xlink="http://www.w3.org/1999/xlink" xml:space="preserve" xmlns:serif="http://www.serif.com/" style="fill-rule:evenodd;clip-rule:evenodd;stroke-linejoin:round;stroke-miterlimit:2;">
    <g transform="matrix(1,0,0,1,-3,0)">
        <g transform="matrix(1.31663,0,0,1.31663,-633.327,-60.1389)">
            <path d="M525.287,255.522L487.847,255.522L556.103,82.722C559.751,73.506 564.887,67.026 571.511,63.282C578.135,59.538 586.631,57.666 596.999,57.666C607.175,57.666 615.575,59.538 622.199,63.282C628.823,67.026 633.863,73.506 637.319,82.722L702.983,255.522L665.255,255.522L606.215,99.138C604.487,94.722 601.319,92.514 596.711,92.514C592.103,92.514 588.839,94.722 586.919,99.138L525.287,255.522Z" style="fill:rgb(255,0,0);fill-rule:nonzero;stroke:rgb(255,0,0);stroke-width:0.23px;"/>
        </g>
    </g>
</svg>
