<?xml version="1.0" encoding="UTF-8" standalone="no"?>
<!DOCTYPE svg PUBLIC "-//W3C//DTD SVG 1.1//EN" "http://www.w3.org/Graphics/SVG/1.1/DTD/svg11.dtd">
<svg width="100%" height="100%" viewBox="0 0 1920 295" version="1.1" xmlns="http://www.w3.org/2000/svg" xmlns:xlink="http://www.w3.org/1999/xlink" xml:space="preserve" xmlns:serif="http://www.serif.com/" style="fill-rule:evenodd;clip-rule:evenodd;stroke-linejoin:round;stroke-miterlimit:2;">
    <g transform="matrix(1.31663,0,0,1.31663,-633.327,-60.1389)">
        <path d="M525.287,255.522L487.847,255.522L556.103,82.722C559.751,73.506 564.887,67.026 571.511,63.282C578.135,59.538 586.631,57.666 596.999,57.666C607.175,57.666 615.575,59.538 622.199,63.282C628.823,67.026 633.863,73.506 637.319,82.722L702.983,255.522L665.255,255.522L606.215,99.138C604.487,94.722 601.319,92.514 596.711,92.514C592.103,92.514 588.839,94.722 586.919,99.138L525.287,255.522Z" style="fill:rgb(255,0,0);fill-rule:nonzero;stroke:rgb(255,0,0);stroke-width:0.23px;"/>
        <path d="M768.935,61.122L828.551,132.834L891.047,61.122L933.095,61.122L849.863,156.738L933.671,255.522L892.199,255.522L827.687,178.338L761.447,255.522L719.399,255.522L806.375,154.146L727.463,61.122L768.935,61.122Z" style="fill:rgb(255,0,0);fill-rule:nonzero;stroke:rgb(255,0,0);stroke-width:0.23px;"/>
        <rect x="962.471" y="61.122" width="33.984" height="194.4" style="fill:rgb(255,0,0);fill-rule:nonzero;stroke:rgb(255,0,0);stroke-width:0.23px;"/>
        <path d="M1150.54,61.122C1178.95,61.122 1200.69,69.186 1215.77,85.314C1230.84,101.442 1238.38,125.922 1238.38,158.754C1238.38,191.394 1230.84,215.682 1215.77,231.618C1200.69,247.554 1178.95,255.522 1150.54,255.522L1124.04,255.522C1095.62,255.522 1073.88,247.554 1058.81,231.618C1043.74,215.682 1036.2,191.394 1036.2,158.754C1036.2,125.922 1043.74,101.442 1058.81,85.314C1073.88,69.186 1095.62,61.122 1124.04,61.122L1150.54,61.122ZM1124.04,95.106C1105.22,95.106 1091.54,100.098 1083,110.082C1074.45,120.066 1070.18,136.29 1070.18,158.754C1070.18,181.026 1074.41,197.058 1082.86,206.85C1091.3,216.642 1105.03,221.538 1124.04,221.538L1150.54,221.538C1169.16,221.538 1182.74,216.594 1191.29,206.706C1199.83,196.818 1204.1,180.738 1204.1,158.466C1204.1,136.194 1199.88,120.066 1191.43,110.082C1182.98,100.098 1169.35,95.106 1150.54,95.106L1124.04,95.106Z" style="fill:rgb(255,0,0);fill-rule:nonzero;stroke:rgb(255,0,0);stroke-width:0.23px;"/>
        <path d="M1312.1,255.522L1278.12,255.522L1278.12,100.002C1278.12,87.33 1281.77,77.106 1289.06,69.33C1296.36,61.554 1307.59,57.666 1322.76,57.666C1336.2,57.666 1346.42,60.882 1353.43,67.314C1360.44,73.746 1365.96,82.53 1369.99,93.666L1426.73,217.794C1427.88,220.098 1429.41,222.018 1431.34,223.554C1433.26,225.09 1435.85,225.858 1439.11,225.858C1442.76,225.858 1445.59,224.85 1447.61,222.834C1449.62,220.818 1450.63,218.178 1450.63,214.914L1450.63,61.122L1484.9,61.122L1484.9,216.354C1484.9,229.218 1481.21,239.538 1473.82,247.314C1466.42,255.09 1455.24,258.978 1440.26,258.978C1433.54,258.978 1427.64,258.162 1422.55,256.53C1417.46,254.898 1413.05,252.498 1409.3,249.33C1405.56,246.162 1402.34,242.37 1399.65,237.954C1396.97,233.538 1394.66,228.546 1392.74,222.978L1336.01,98.85C1333.51,93.282 1329.48,90.498 1323.91,90.498C1320.07,90.498 1317.14,91.506 1315.13,93.522C1313.11,95.538 1312.1,98.274 1312.1,101.73L1312.1,255.522Z" style="fill:rgb(255,0,0);fill-rule:nonzero;stroke:rgb(255,0,0);stroke-width:0.23px;"/>
        <rect x="1531.56" y="61.122" width="33.984" height="194.4" style="fill:rgb(255,0,0);fill-rule:nonzero;stroke:rgb(255,0,0);stroke-width:0.23px;"/>
        <path d="M1744.97,61.122L1744.97,95.106L1688.23,95.106L1688.23,255.522L1653.96,255.522L1653.96,95.106L1597.22,95.106L1597.22,61.122L1744.97,61.122Z" style="fill:rgb(255,0,0);fill-rule:nonzero;stroke:rgb(255,0,0);stroke-width:0.23px;"/>
        <path d="M1932.17,61.122L1932.17,95.106L1834.82,95.106C1824.45,95.106 1816.97,97.314 1812.36,101.73C1807.75,106.146 1805.45,112.098 1805.45,119.586C1805.45,134.946 1815.34,142.626 1835.11,142.626L1930.73,142.626L1930.73,173.442L1834.25,173.442C1814.47,173.442 1804.58,181.314 1804.58,197.058C1804.58,204.738 1806.98,210.738 1811.78,215.058C1816.58,219.378 1823.98,221.538 1833.96,221.538L1932.45,221.538L1932.45,255.522L1833.96,255.522C1822.44,255.522 1812.6,254.178 1804.44,251.49C1796.28,248.802 1789.56,245.106 1784.28,240.402C1779,235.698 1775.16,230.082 1772.76,223.554C1770.36,217.026 1769.16,210.018 1769.16,202.53C1769.16,191.394 1771.56,182.13 1776.36,174.738C1781.16,167.346 1788.07,161.73 1797.1,157.89C1778.86,150.402 1769.74,135.81 1769.74,114.114C1769.74,106.434 1770.98,99.33 1773.48,92.802C1775.98,86.274 1779.86,80.658 1785.14,75.954C1790.42,71.25 1797.14,67.602 1805.3,65.01C1813.46,62.418 1823.3,61.122 1834.82,61.122L1932.17,61.122Z" style="fill:rgb(255,0,0);fill-rule:nonzero;stroke:rgb(255,0,0);stroke-width:0.23px;"/>
    </g>
</svg>
